<svg xmlns="http://www.w3.org/2000/svg" xmlns:xlink="http://www.w3.org/1999/xlink" preserveAspectRatio="xMidYMid" width="252.156" height="115.375" viewBox="0 0 252.156 115.375">
  <defs>
    <style>
      .cls-1 {
        fill: #fff;
        fill-rule: evenodd;
      }
    </style>
  </defs>
  <path d="M235.511,115.368 L235.511,81.768 L193.111,81.768 C187.776,81.768 183.536,80.518 180.391,78.013 C177.243,75.508 175.671,72.125 175.671,67.863 C175.671,65.093 176.428,62.535 177.948,60.190 L214.578,0.025 L234.098,0.008 L194.231,65.448 L235.511,65.608 L235.511,0.008 L252.151,0.008 L252.151,115.368 L235.511,115.368 ZM164.313,106.728 C160.793,110.355 157.405,112.703 154.153,113.768 C150.898,114.835 145.165,115.368 136.953,115.368 L124.473,115.368 C116.365,115.368 110.685,114.835 107.433,113.768 C104.178,112.703 100.793,110.355 97.273,106.728 C94.393,103.743 92.365,100.463 91.193,96.888 C90.018,93.315 89.433,88.703 89.433,83.048 L89.433,32.328 C89.433,26.783 90.018,22.223 91.193,18.648 C92.365,15.075 94.393,11.795 97.273,8.808 C100.793,5.075 104.178,2.675 107.433,1.608 C110.685,0.543 116.365,0.008 124.473,0.008 L136.953,0.008 C145.058,0.008 150.765,0.543 154.073,1.608 C157.378,2.675 160.793,5.075 164.313,8.808 C167.193,11.795 169.218,15.048 170.393,18.568 C171.565,22.088 172.153,26.675 172.153,32.328 L172.153,83.048 C172.153,88.915 171.618,93.528 170.553,96.888 C169.485,100.248 167.405,103.528 164.313,106.728 ZM155.513,31.528 C155.513,25.768 154.445,21.875 152.313,19.848 C150.178,17.823 146.073,16.808 139.993,16.808 L121.913,16.808 C115.833,16.808 111.673,17.823 109.433,19.848 C107.193,21.875 106.073,25.768 106.073,31.528 L106.073,83.848 C106.073,89.608 107.138,93.503 109.273,95.528 C111.405,97.555 115.618,98.568 121.913,98.568 L139.993,98.568 C145.965,98.568 150.045,97.528 152.233,95.448 C154.418,93.368 155.513,89.503 155.513,83.848 L155.513,31.528 ZM59.835,81.768 L17.435,81.768 C12.100,81.768 7.860,80.518 4.715,78.013 C1.567,75.508 -0.005,72.125 -0.005,67.863 C-0.005,65.093 0.752,62.535 2.272,60.190 L38.902,0.025 L58.422,0.008 L18.555,65.448 L59.835,65.608 L59.835,0.008 L76.475,0.008 L76.475,115.368 L59.835,115.368 L59.835,81.768 Z" class="cls-1"/>
</svg>
